<svg xmlns="http://www.w3.org/2000/svg" width="33" height="40" viewBox="0 0 33 40">
    <g fill="none" fill-rule="evenodd">
        <path d="M-4 0h40v40H-4z"/>
        <g fill="#000">
            <path d="M27.022 21.214c-.05-4.986 4.065-7.377 4.25-7.498-2.314-3.382-5.917-3.846-7.2-3.898-3.063-.312-5.98 1.804-7.535 1.804-1.551 0-3.953-1.759-6.494-1.714-3.342.05-6.423 1.944-8.143 4.936-3.471 6.022-.888 14.946 2.494 19.833 1.654 2.389 3.626 5.077 6.213 4.978 2.494-.098 3.435-1.613 6.449-1.613s3.86 1.613 6.498 1.563c2.682-.049 4.382-2.435 6.022-4.833 1.898-2.775 2.68-5.462 2.726-5.598-.058-.028-5.227-2.008-5.28-7.96zM22.066 6.583c1.372-1.665 2.301-3.98 2.048-6.284-1.98.08-4.376 1.316-5.798 2.98-1.274 1.477-2.387 3.828-2.089 6.09 2.209.172 4.462-1.123 5.839-2.786z"/>
        </g>
    </g>
</svg>
