<svg xmlns="http://www.w3.org/2000/svg" width="40" height="31" viewBox="0 0 40 31">
    <g fill="none" fill-rule="evenodd">
        <path d="M0-5h40v40H0z"/>
        <g fill-rule="nonzero">
            <g fill="#F2F2F2">
                <path d="M37.728 4.909l-2.543 25.652H4.632L2.582 5.405l17.326 9.742z"/>
                <path d="M36.866.077L19.908 16.074 2.951.077h16.957z"/>
            </g>
            <path fill="#F14336" d="M4.539 7.359v22.996H1.835C.822 30.355 0 29.513 0 28.476V3.972l2.965.082L4.539 7.36z"/>
            <path fill="#D32E2A" d="M40 3.922v24.55c0 1.04-.822 1.883-1.836 1.883h-2.703V7.315l1.497-3.627L40 3.922z"/>
            <path fill="#F14336" d="M40 1.874v2.083l-4.665 3.378L20 18.44 4.665 7.335 0 3.957V1.874A1.88 1.88 0 0 1 1.886 0h1.092L20 12.326 37.022 0h1.091A1.88 1.88 0 0 1 40 1.874z"/>
            <path fill="#D32E2A" d="M4.539 7.376L0 6.652v-2.68z"/>
        </g>
    </g>
</svg>
