<?xml version="1.0" encoding="UTF-8" standalone="no"?>
<svg width="39px" height="43px" viewBox="0 0 39 43" version="1.1" xmlns="http://www.w3.org/2000/svg" xmlns:xlink="http://www.w3.org/1999/xlink" xmlns:sketch="http://www.bohemiancoding.com/sketch/ns">
    <!-- Generator: Sketch 3.2.2 (9983) - http://www.bohemiancoding.com/sketch -->
    <title>icon-registry</title>
    <desc>Created with Sketch.</desc>
    <defs></defs>
    <g id="Welcome" stroke="none" stroke-width="1" fill="none" fill-rule="evenodd" sketch:type="MSPage">
        <g id="Menu-App" sketch:type="MSArtboardGroup" transform="translate(-339.000000, -464.000000)" fill="#000000">
            <g id="Menu---Design-+-Imported-Layers-6" sketch:type="MSLayerGroup" transform="translate(304.663025, 464.000000)">
                <path d="M69.4272062,11.9157301 L64.5725806,11.9157301 C65.7626119,10.6623998 66.5003908,8.94606464 66.5003908,7.05347994 L66.5003908,6.93388201 C66.5003908,3.11024544 63.497975,0 59.8077306,0 L59.69298,0 C57.0624911,0 54.7884041,1.58414795 53.6948984,3.8767912 C52.6034176,2.4632976 50.9287338,1.55407362 49.0501989,1.55407362 L48.9502984,1.55407362 C45.6691062,1.55407362 43.0001421,4.31951335 43.0001421,7.71931166 L43.0001421,7.82282331 C43.0001421,9.3936826 43.5752451,10.8253607 44.5128251,11.9157301 L38.5727938,11.9157301 C36.6031334,11.9157301 35,13.5761129 35,15.6176705 L35,18.056489 C35,19.7105773 36.0523305,21.1142792 37.5002132,21.5870757 L37.5002132,39.2973602 C37.5002132,41.3389177 39.1033466,43 41.073007,43 L66.926993,43 C68.8973284,43 70.5004618,41.3389177 70.5004618,39.2980596 L70.5004618,21.5870757 C71.9476695,21.1142792 73,19.7105773 73,18.056489 L73,15.6176705 C73,13.5761129 71.3975416,11.9157301 69.4272062,11.9157301 L69.4272062,11.9157301 Z M55.0003553,6.93388201 C55.0003553,4.25307005 57.1050163,2.07233129 59.69298,2.07233129 L59.8077306,2.07233129 C62.3950192,2.07233129 64.5003553,4.25307005 64.5003553,6.93388201 L64.5003553,7.05347994 C64.5003553,9.7342919 62.3950192,11.9157301 59.8077306,11.9157301 L55.0003553,11.9157301 L55.0003553,6.93388201 L55.0003553,6.93388201 Z M45.0001776,7.82282331 L45.0001776,7.71931166 C45.0001776,5.46233796 46.772062,3.62640491 48.9502984,3.62640491 L49.0501989,3.62640491 C51.2284354,3.62640491 53.0003197,5.46233796 53.0003197,7.71931166 L53.0003197,11.9157301 L48.9502984,11.9157301 C46.772062,11.9157301 45.0001776,10.0790976 45.0001776,7.82282331 L45.0001776,7.82282331 Z M37.0000355,18.056489 L37.0000355,15.6183699 C37.0000355,14.7189376 37.7060892,13.9880614 38.5727938,13.9880614 L53.0003197,13.9880614 L53.0003197,19.6867975 L38.5727938,19.6867975 C37.7060892,19.6867975 37.0000355,18.9552219 37.0000355,18.056489 L37.0000355,18.056489 Z M39.5002487,39.2980596 L39.5002487,21.7591288 L53.0003197,21.7591288 L53.0003197,40.9276687 L41.073007,40.9276687 C40.2063024,40.9276687 39.5002487,40.1960931 39.5002487,39.2980596 L39.5002487,39.2980596 Z M68.5004263,39.2980596 C68.5004263,40.1960931 67.7943726,40.9276687 66.926993,40.9276687 L55.0003553,40.9276687 L55.0003553,21.7591288 L68.5004263,21.7591288 L68.5004263,39.2980596 L68.5004263,39.2980596 Z M71.0006395,18.056489 C71.0006395,18.9552219 70.2945858,19.6867975 69.4272062,19.6867975 L55.0003553,19.6867975 L55.0003553,13.9880614 L69.4265312,13.9880614 C70.2945858,13.9880614 71.0006395,14.7189376 71.0006395,15.6176705 L71.0006395,18.056489 L71.0006395,18.056489 Z" id="icon-registry" sketch:type="MSShapeGroup"></path>
            </g>
        </g>
    </g>
</svg>