<?xml version="1.0" encoding="UTF-8" standalone="no"?>
<svg width="43px" height="30px" viewBox="0 0 43 30" version="1.1" xmlns="http://www.w3.org/2000/svg" xmlns:xlink="http://www.w3.org/1999/xlink">
    <!-- Generator: sketchtool 3.7.2 (28276) - http://www.bohemiancoding.com/sketch -->
    <title>9436F4E3-17C5-463A-A53A-28BF186E2A10</title>
    <desc>Created with sketchtool.</desc>
    <defs></defs>
    <g id="Welcome" stroke="none" stroke-width="1" fill="none" fill-rule="evenodd">
        <g id="Navigation-Tabs---Story" transform="translate(-572.000000, -168.000000)">
            <g id="Group-7" transform="translate(569.000000, 159.000000)">
                <g id="icon-tidbits">
                    <rect id="Rectangle-238" fill="#D8D8D8" opacity="0" x="0" y="0" width="48" height="48"></rect>
                    <g id="noun_331993" transform="translate(3.000000, 9.000000)" fill="#000000">
                        <g id="Group">
                            <path d="M38.2324219,0 L14.5019531,0 C12.3266602,0 10.546875,1.76086957 10.546875,3.91304348 L10.546875,11.0869565 L2.63671875,11.0869565 C1.18652344,11.0869565 0,12.2608696 0,13.6956522 L0,22.826087 C0,24.2608696 1.18652344,25.4347826 2.63671875,25.4347826 L4.61425781,25.4347826 L4.61425781,29.3478261 C4.61425781,29.6086957 4.74609375,29.8695652 5.00976563,29.9347826 C5.07568359,30 5.20751953,30 5.2734375,30 C5.47119141,30 5.60302734,29.9347826 5.73486328,29.8043478 L10.1513672,25.4347826 L19.7753906,25.4347826 C21.2255859,25.4347826 22.4121094,24.2608696 22.4121094,22.826087 L22.4121094,20.8695652 L29.3994141,20.8695652 L34.4750977,25.8913043 C34.6069336,26.0217391 34.7387695,26.0869565 34.9365234,26.0869565 C35.0024414,26.0869565 35.1342773,26.0869565 35.2001953,26.0217391 C35.4638672,25.8913043 35.5957031,25.6956522 35.5957031,25.4347826 L35.5957031,20.8695652 L38.2324219,20.8695652 C40.4077148,20.8695652 42.1875,19.1086957 42.1875,16.9565217 L42.1875,3.91304348 C42.1875,1.76086957 40.4077148,0 38.2324219,0 L38.2324219,0 Z M21.09375,22.826087 C21.09375,23.5434783 20.5004883,24.1304348 19.7753906,24.1304348 L9.88769531,24.1304348 C9.68994141,24.1304348 9.55810547,24.1956522 9.42626953,24.326087 L5.93261719,27.7826087 L5.93261719,24.7826087 C5.93261719,24.3913043 5.66894531,24.1304348 5.2734375,24.1304348 L2.63671875,24.1304348 C1.91162109,24.1304348 1.31835938,23.5434783 1.31835938,22.826087 L1.31835938,13.6956522 C1.31835938,12.9782609 1.91162109,12.3913043 2.63671875,12.3913043 L10.546875,12.3913043 L10.546875,16.9565217 C10.546875,19.1086957 12.3266602,20.8695652 14.5019531,20.8695652 L21.09375,20.8695652 L21.09375,22.826087 L21.09375,22.826087 Z M40.8691406,16.9565217 C40.8691406,18.3913043 39.6826172,19.5652174 38.2324219,19.5652174 L34.9365234,19.5652174 C34.5410156,19.5652174 34.2773437,19.826087 34.2773437,20.2173913 L34.2773437,23.8695652 L30.1245117,19.7608696 C29.9926758,19.6304348 29.8608398,19.5652174 29.6630859,19.5652174 L14.5019531,19.5652174 C13.0517578,19.5652174 11.8652344,18.3913043 11.8652344,16.9565217 L11.8652344,3.91304348 C11.8652344,2.47826087 13.0517578,1.30434783 14.5019531,1.30434783 L38.2324219,1.30434783 C39.6826172,1.30434783 40.8691406,2.47826087 40.8691406,3.91304348 L40.8691406,16.9565217 L40.8691406,16.9565217 Z" id="Shape"></path>
                            <path d="M36.2548828,5.86956522 L16.4794922,5.86956522 C16.0839844,5.86956522 15.8203125,6.13043478 15.8203125,6.52173913 C15.8203125,6.91304348 16.0839844,7.17391304 16.4794922,7.17391304 L36.2548828,7.17391304 C36.6503906,7.17391304 36.9140625,6.91304348 36.9140625,6.52173913 C36.9140625,6.13043478 36.6503906,5.86956522 36.2548828,5.86956522 L36.2548828,5.86956522 Z" id="Shape"></path>
                            <path d="M16.4794922,11.0869565 L27.6855469,11.0869565 C28.0810547,11.0869565 28.3447266,10.826087 28.3447266,10.4347826 C28.3447266,10.0434783 28.0810547,9.7826087 27.6855469,9.7826087 L16.4794922,9.7826087 C16.0839844,9.7826087 15.8203125,10.0434783 15.8203125,10.4347826 C15.8203125,10.826087 16.0839844,11.0869565 16.4794922,11.0869565 L16.4794922,11.0869565 Z" id="Shape"></path>
                            <path d="M32.9589844,13.6956522 L16.4794922,13.6956522 C16.0839844,13.6956522 15.8203125,13.9565217 15.8203125,14.3478261 C15.8203125,14.7391304 16.0839844,15 16.4794922,15 L32.9589844,15 C33.3544922,15 33.6181641,14.7391304 33.6181641,14.3478261 C33.6181641,13.9565217 33.3544922,13.6956522 32.9589844,13.6956522 L32.9589844,13.6956522 Z" id="Shape"></path>
                        </g>
                    </g>
                </g>
            </g>
        </g>
    </g>
</svg>