<svg xmlns="http://www.w3.org/2000/svg" width="44" height="42" viewBox="0 0 44 42">
    <path fill="#000" fill-rule="evenodd" stroke="#F6F6F6" stroke-width=".2" d="M4.043 32.019h4.59v9.545h26.735V32.02h4.589a2.968 2.968 0 0 0 2.96-2.96V14.652a2.968 2.968 0 0 0-2.96-2.96h-4.59V1H8.633v10.693H4.043a2.968 2.968 0 0 0-2.96 2.96v14.403a2.972 2.972 0 0 0 2.96 2.963zm-.987-17.367a.99.99 0 0 1 .987-.986h35.914a.99.99 0 0 1 .987.986v.987a.99.99 0 0 1-.987.987H4.043a.99.99 0 0 1-.987-.987v-.987zm7.55-11.679h22.789v8.72h-22.79v-8.72zM4.042 18.6h35.914c.344 0 .691-.049.987-.198v10.606a.99.99 0 0 1-.987.987h-4.59v-2.318H36.8a.99.99 0 0 0 .987-.986.99.99 0 0 0-.987-.987H7.201a.99.99 0 0 0-.987.987.99.99 0 0 0 .987.986h1.431v2.37H4.043a.99.99 0 0 1-.987-.987V18.453c.296.097.643.146.987.146zm6.562 20.992V27.676h22.79v11.915h-22.79z"/>
</svg>
