<?xml version="1.0" encoding="UTF-8" standalone="no"?>
<svg width="39px" height="44px" viewBox="0 0 39 44" version="1.1" xmlns="http://www.w3.org/2000/svg" xmlns:xlink="http://www.w3.org/1999/xlink">
    <!-- Generator: Sketch 3.7.1 (28215) - http://www.bohemiancoding.com/sketch -->
    <title>icon-faq</title>
    <desc>Created with Sketch.</desc>
    <defs></defs>
    <g id="Welcome" stroke="none" stroke-width="1" fill="none" fill-rule="evenodd">
        <g id="icon-faq" fill="#000000">
            <g id="Group">
                <path d="M28.4159378,23.8333333 C22.8917458,23.8333333 18.3951409,28.3561667 18.3951409,33.9166667 C18.3951409,39.4771667 22.8917458,44 28.4159378,44 C33.9401298,44 38.4367347,39.4771667 38.4367347,33.9166667 C38.4367347,28.3561667 33.9401298,23.8333333 28.4159378,23.8333333 L28.4159378,23.8333333 Z M28.4159378,42.1666667 C23.8956474,42.1666667 20.217104,38.4651667 20.217104,33.9166667 C20.217104,29.3681667 23.8956474,25.6666667 28.4159378,25.6666667 C32.9362282,25.6666667 36.6147716,29.3681667 36.6147716,33.9166667 C36.6147716,38.4651667 32.9362282,42.1666667 28.4159378,42.1666667 L28.4159378,42.1666667 Z" id="Shape"></path>
                <path d="M27.7600311,38.775 C27.5960544,38.94 27.5049563,39.1783333 27.5049563,39.4166667 C27.5049563,39.655 27.5960544,39.8933333 27.7764288,40.0583333 C27.9422274,40.2416667 28.1790826,40.3333333 28.4159378,40.3333333 C28.652793,40.3333333 28.8896482,40.2416667 29.0536249,40.0583333 C29.2358212,39.8933333 29.3269193,39.655 29.3269193,39.4166667 C29.3269193,39.1783333 29.2358212,38.94 29.0536249,38.775 C28.7256715,38.4266667 28.1244237,38.4083333 27.7600311,38.775 L27.7600311,38.775 Z" id="Shape"></path>
                <path d="M28.4122939,27.5 C25.9836171,27.5 24.0286507,28.9666667 23.8646741,30.9136667 C23.8227689,31.4178333 24.1944494,31.8615 24.6954892,31.9036667 C25.1564459,31.9568333 25.6392661,31.5736667 25.6793493,31.0676667 C25.7595156,30.1125 26.9856968,29.3333333 28.4122939,29.3333333 C29.8953718,29.3333333 31.1488824,30.173 31.1488824,31.1666667 C31.1488824,32.0595 30.2852719,32.637 28.4323355,32.9798333 L28.2337415,33.0183333 C27.812868,33.1081667 27.5086002,33.4803333 27.5086002,33.9148333 L27.5049563,35.7481667 C27.5031343,36.2541667 27.911254,36.6666667 28.4159378,36.6666667 C28.9169776,36.6666667 29.3250974,36.2578333 29.3269193,35.7518333 L29.3287413,34.6646667 C31.7464863,34.0926667 32.9708455,32.9175 32.9708455,31.1666667 C32.9708455,29.1445 30.9266029,27.5 28.4122939,27.5 L28.4122939,27.5 Z" id="Shape"></path>
                <path d="M20.217104,42.1666667 L2.90845481,42.1666667 C2.40741497,42.1666667 1.99747328,41.756 1.99747328,41.25 L1.99747328,6.41666667 C1.99747328,5.91066667 2.40741497,5.5 2.90845481,5.5 L7.46336249,5.5 L7.46336249,6.41666667 C7.46336249,6.92266667 7.87148222,7.33333333 8.37434402,7.33333333 L24.7720117,7.33333333 C25.2748735,7.33333333 25.6829932,6.92266667 25.6829932,6.41666667 L25.6829932,5.5 L30.2379009,5.5 C30.7389407,5.5 31.1488824,5.91066667 31.1488824,6.41666667 L31.1488824,21.0833333 C31.1488824,21.5893333 31.5570021,22 32.0598639,22 C32.5627258,22 32.9708455,21.5893333 32.9708455,21.0833333 L32.9708455,6.41666667 C32.9708455,4.9005 31.7446643,3.66666667 30.2379009,3.66666667 L25.5153726,3.66666667 C25.1382262,2.6015 24.1361466,1.83333333 22.9500486,1.83333333 L19.7178861,1.83333333 C19.0729112,0.715 17.8795254,0 16.5731778,0 C15.2668303,0 14.0734445,0.715 13.4284696,1.83333333 L10.1963071,1.83333333 C9.01020914,1.83333333 8.00812945,2.6015 7.63098309,3.66666667 L2.90845481,3.66666667 C1.40169135,3.66666667 0.175510204,4.9005 0.175510204,6.41666667 L0.175510204,41.25 C0.175510204,42.7661667 1.40169135,44 2.90845481,44 L20.217104,44 C20.7199658,44 21.1280855,43.5893333 21.1280855,43.0833333 C21.1280855,42.5773333 20.7199658,42.1666667 20.217104,42.1666667 L20.217104,42.1666667 Z M10.1963071,3.66666667 L14.0078538,3.66666667 C14.39411,3.66666667 14.7366391,3.42283333 14.8641765,3.058 C15.1247172,2.3265 15.8115973,1.83333333 16.5731778,1.83333333 C17.3347584,1.83333333 18.0216385,2.3265 18.2803572,3.058 C18.4097166,3.42283333 18.7522457,3.66666667 19.1385018,3.66666667 L22.9500486,3.66666667 C23.4510884,3.66666667 23.8610301,4.07733333 23.8610301,4.58333333 L23.8610301,5.5 L9.28532556,5.5 L9.28532556,4.58333333 C9.28532556,4.07733333 9.69526725,3.66666667 10.1963071,3.66666667 L10.1963071,3.66666667 Z" id="Shape"></path>
            </g>
        </g>
    </g>
</svg>