<?xml version="1.0" encoding="UTF-8" standalone="no"?>
<svg width="47px" height="51px" viewBox="0 0 47 51" version="1.1" xmlns="http://www.w3.org/2000/svg" xmlns:xlink="http://www.w3.org/1999/xlink" xmlns:sketch="http://www.bohemiancoding.com/sketch/ns">
    <!-- Generator: Sketch 3.3.2 (12043) - http://www.bohemiancoding.com/sketch -->
    <title>noun_100213</title>
    <desc>Created with Sketch.</desc>
    <defs></defs>
    <g id="Welcome" stroke="none" stroke-width="1" fill="none" fill-rule="evenodd" sketch:type="MSPage">
        <g id="Admin-Menu-V2-Copy" sketch:type="MSArtboardGroup" transform="translate(-253.000000, -301.000000)" fill="#000000">
            <g id="noun_100213" sketch:type="MSLayerGroup" transform="translate(253.000000, 301.000000)">
                <path d="M33.4853636,6.80945455 C33.4875,6.82369697 33.4903485,6.84078788 33.493197,6.85859091 C33.5174091,7.04943939 33.5501667,7.23601515 33.5800758,7.35636364 C33.5843485,7.382 33.5893333,7.40834848 33.5950303,7.43469697 C34.2131515,10.1151212 36.566,11.9865758 39.3162121,11.9865758 C42.0671364,11.9865758 44.4199848,10.1144091 45.0373939,7.43612121 C45.0801212,7.2545303 45.1135909,7.06795455 45.1427879,6.84007576 C45.1470606,6.81871212 45.1499091,6.79663636 45.1527576,6.77456061 C45.1762576,6.56092424 45.1919242,6.34230303 45.1919242,6.10231818 C45.1919242,5.88298485 45.1769697,5.66578788 45.1527576,5.45143939 C45.1513333,5.43648485 45.149197,5.42224242 45.1470606,5.408 L45.1484848,5.408 C45.1221364,5.19934848 45.0851061,4.99283333 45.0388182,4.79059091 C44.420697,2.11016667 42.0671364,0.238 39.3169242,0.238 C36.5674242,0.238 34.2145758,2.10945455 33.5950303,4.78987879 C33.5900455,4.80910606 33.5857727,4.82904545 33.5822121,4.84898485 C33.5444697,5.0220303 33.5145606,5.19863636 33.4917727,5.37809091 C33.4875,5.40301515 33.4832273,5.42865152 33.4803788,5.45357576 C33.458303,5.65795455 33.4426364,5.86375758 33.4412121,6.07383333 C33.4405,6.08807576 33.4405,6.10089394 33.4405,6.11371212 C33.4405,6.1265303 33.4405,6.14006061 33.4412121,6.15359091 C33.4433485,6.36295455 33.458303,6.57089394 33.4853636,6.80945455 L33.4853636,6.80945455 Z M35.5255909,6.11228788 L35.5255909,6.10160606 C35.5255909,5.96843939 35.5355606,5.83740909 35.5490909,5.70851515 C35.5526515,5.68857576 35.5562121,5.66792424 35.5583485,5.64798485 C35.5740152,5.51766667 35.596803,5.38948485 35.6195909,5.28765152 C35.6210152,5.2805303 35.6231515,5.27269697 35.6245758,5.26557576 C35.6252879,5.26343939 35.626,5.26130303 35.6267121,5.25845455 C36.0255,3.52942424 37.5430303,2.32095455 39.3176364,2.32095455 C41.0922424,2.32095455 42.6104848,3.52942424 43.0099848,5.26201515 C43.0406061,5.39375758 43.0648182,5.52763636 43.0762121,5.60525758 C43.0776364,5.62733333 43.0804848,5.65368182 43.0840455,5.68074242 C43.099,5.81889394 43.1103939,5.95918182 43.1103939,6.12154545 C43.1103939,6.2639697 43.099,6.4049697 43.0840455,6.54383333 L43.0840455,6.54383333 C43.0833333,6.54881818 43.0826212,6.55380303 43.0826212,6.55807576 C43.0655303,6.69480303 43.0406061,6.83081818 43.0092727,6.96540909 C42.6104848,8.69443939 41.0929545,9.90219697 39.3176364,9.90219697 C37.5565606,9.90219697 36.0482879,8.71295455 35.6345455,7.00457576 C35.631697,6.98890909 35.6281364,6.97395455 35.6252879,6.959 C35.596803,6.83437879 35.5747273,6.70619697 35.5583485,6.57659091 C35.5533636,6.53386364 35.5540758,6.52175758 35.5462424,6.489 C35.5334242,6.36865152 35.5255909,6.24616667 35.5255909,6.12225758 C35.5255909,6.11940909 35.5255909,6.11584848 35.5255909,6.11228788 L35.5255909,6.11228788 Z" id="Shape" sketch:type="MSShapeGroup"></path>
                <path d="M44.0582273,16.5455758 C43.6558788,15.5948939 43.099,14.8165455 42.3968485,14.2860152 C42.3213636,14.2283333 42.2380455,14.1877424 42.1540152,14.1535606 C41.3194091,13.5090909 40.3765606,13.1793788 39.3382879,13.1793788 C36.5638636,13.1793788 34.8725758,14.8870455 33.892697,16.9194394 C33.8300303,16.9927879 33.7737727,17.0725455 33.7317576,17.1644091 C33.2752879,18.1784697 32.9128182,19.2423788 32.5610303,20.2713939 C31.8147273,22.4583182 31.1104394,24.5241818 29.5822273,26.0523939 C27.8503485,27.8782727 26.0565152,28.9129848 24.8081667,28.8268182 C24.2242273,28.7791061 23.7357121,29.2170606 23.6951212,29.7910303 C23.6538182,30.3657121 24.0860758,30.8634848 24.6593333,30.9040758 C24.7618788,30.9119091 24.8637121,30.9154697 24.9662576,30.9154697 C27.4615303,30.9154697 29.8592424,28.7897879 31.0748333,27.5051212 C31.6210303,26.9589242 32.0689545,26.3628788 32.4606212,25.7383485 L31.625303,38.0566212 C31.6060758,38.3443182 31.7064848,38.6277424 31.9037424,38.8385303 C32.101,39.0493182 32.3765909,39.1689545 32.665,39.1689545 L34.2850758,39.1689545 L34.2850758,49.3416061 C34.2850758,49.917 34.7515152,50.3834394 35.3269091,50.3834394 C35.902303,50.3834394 36.3687424,49.917 36.3687424,49.3416061 L36.3687424,39.1682424 L40.4762576,39.1682424 C40.1059545,41.0703182 39.9243636,44.9948182 43.1431515,49.3636818 C43.3475303,49.640697 43.6622879,49.7873939 43.9827424,49.7873939 C44.197803,49.7873939 44.4135758,49.7211667 44.6001515,49.5844394 C45.0630303,49.2433333 45.1620152,48.5910303 44.8209091,48.1274394 C41.7523788,43.9629545 42.2907424,40.3802727 42.6055,39.1682424 L45.4212273,39.1682424 C45.9681364,39.1682424 46.4210455,38.7459545 46.4602121,38.2018939 C46.5086364,37.5296515 47.4970606,23.1220152 44.0582273,16.5455758 L44.0582273,16.5455758 Z M44.4413485,37.0845758 L33.7801818,37.0845758 L34.8056364,21.9591212 C34.8127576,21.6856667 35.0263939,15.2637576 39.3382879,15.2637576 C40.0845909,15.2637576 40.7347576,15.5721061 41.3251061,16.2066061 C41.6177879,16.5206515 41.8834091,16.9037727 42.1276667,17.3381667 C42.723,18.7531515 42.8860758,20.853197 42.493697,23.0073636 C41.9816818,25.8145455 40.4000606,29.1187879 37.4938939,29.9740455 C36.942,30.1364091 36.6258182,30.7153636 36.7888939,31.2672576 C36.9227727,31.7208788 37.3379394,32.0149848 37.7872879,32.0149848 C37.8848485,32.0149848 37.9838333,32.0014545 38.0821061,31.9722576 C40.8914242,31.146197 43.0797727,28.6174545 44.1379848,25.0732273 C44.6386061,29.4214394 44.5944545,34.1869545 44.4413485,37.0845758 L44.4413485,37.0845758 Z" id="Shape" sketch:type="MSShapeGroup"></path>
                <path d="M4.11962121,6.84078788 C4.14312121,7.02878788 4.17445455,7.21251515 4.21789394,7.40906061 C4.22145455,7.42615152 4.22501515,7.44324242 4.23,7.46033333 C4.85310606,10.1322121 7.2009697,11.9972576 9.94619697,11.9972576 C12.6964091,11.9972576 15.0499697,10.1243788 15.668803,7.44537879 C15.715803,7.24171212 15.7528333,7.03448485 15.7834545,6.78381818 C15.8069545,6.57018182 15.8219091,6.35369697 15.8219091,6.113 C15.8219091,5.89224242 15.8069545,5.6764697 15.7784697,5.42295455 C15.7528333,5.21145455 15.7165152,5.00565152 15.6695152,4.80127273 C15.0499697,2.12013636 12.6964091,0.247969697 9.94619697,0.247969697 C7.19598485,0.247969697 4.84313636,2.12013636 4.22430303,4.80198485 C4.22074242,4.81836364 4.21718182,4.83545455 4.21362121,4.85183333 C4.17374242,5.03271212 4.14240909,5.21501515 4.12033333,5.39304545 C4.11606061,5.4179697 4.1125,5.44289394 4.10965152,5.46781818 C4.08828788,5.66436364 4.07475758,5.86518182 4.07262121,6.06742424 C4.07190909,6.08665152 4.07119697,6.10516667 4.07119697,6.12368182 C4.07119697,6.14219697 4.07190909,6.16142424 4.07262121,6.18065152 C4.07475758,6.38004545 4.08971212,6.58371212 4.11962121,6.84078788 L4.11962121,6.84078788 Z M6.15628788,6.12154545 L6.15628788,6.11015152 C6.15628788,5.97698485 6.16554545,5.84524242 6.17907576,5.71563636 C6.18263636,5.69356061 6.18619697,5.67077273 6.18762121,5.66009091 C6.20328788,5.53475758 6.22393939,5.41227273 6.251,5.2905 C6.25242424,5.28266667 6.25456061,5.27554545 6.25669697,5.26771212 C6.65477273,3.5379697 8.17230303,2.3295 9.94690909,2.3295 C11.7215152,2.3295 13.2404697,3.53868182 13.6406818,5.27056061 C13.6705909,5.40159091 13.6940909,5.53333333 13.7140303,5.68857576 C13.7289848,5.82743939 13.7396667,5.96772727 13.7396667,6.13080303 C13.7396667,6.27393939 13.7289848,6.41422727 13.7104697,6.5730303 C13.6940909,6.70904545 13.6705909,6.84221212 13.6399697,6.97395455 C13.2397576,8.70440909 11.7215152,9.91216667 9.94690909,9.91216667 C8.18440909,9.91216667 6.67542424,8.72007576 6.26381818,7.00956061 C6.2609697,6.99460606 6.25812121,6.98036364 6.25527273,6.96612121 C6.22607576,6.84078788 6.20471212,6.71260606 6.18690909,6.5694697 C6.18619697,6.56234848 6.18263636,6.54312121 6.17978788,6.52460606 C6.16625758,6.395 6.15771212,6.2639697 6.15771212,6.13151515 C6.15628788,6.12866667 6.15628788,6.12510606 6.15628788,6.12154545 L6.15628788,6.12154545 Z" id="Shape" sketch:type="MSShapeGroup"></path>
                <path d="M22.1996667,28.9008788 C21.9846061,28.890197 16.9321061,28.5633333 16.9862273,20.8218636 C16.9862273,20.8133182 16.9840909,20.806197 16.9840909,20.7976515 C16.9598788,16.1752727 14.1320455,13.1907727 9.7624697,13.1907727 C6.62628788,13.1907727 4.34322727,14.9525606 3.17890909,17.2498636 C-1.43207576,24.5384242 0.991272727,32.5846818 1.09666667,32.9236515 C1.2355303,33.3701515 1.64713636,33.6557121 2.09078788,33.6557121 C2.19333333,33.6557121 2.29801515,33.6407576 2.40056061,33.6087121 C2.94960606,33.4385152 3.2565303,32.8538636 3.08562121,32.3048182 C3.0685303,32.250697 1.86931818,28.2621061 2.84848485,23.5827576 L5.24263636,35.0956212 L5.24263636,49.9882121 C5.24263636,50.5636061 5.70907576,51.0300455 6.2844697,51.0300455 C6.85986364,51.0300455 7.32630303,50.5636061 7.32630303,49.9882121 L7.32630303,36.0306364 L12.3054545,36.0306364 L12.3054545,49.9889242 C12.3054545,50.5643182 12.7718939,51.0307576 13.3472879,51.0307576 C13.9226818,51.0307576 14.3891212,50.5643182 14.3891212,49.9889242 L14.3891212,35.0849394 L15.9735909,26.4632879 C17.9661061,30.7224848 22.0465606,30.9795606 22.1013939,30.9824091 C22.1177727,30.9831212 22.1348636,30.9838333 22.1512424,30.9838333 C22.7038485,30.9838333 23.1645909,30.5494394 23.1909394,29.9904242 C23.218,29.4157424 22.7743485,28.9279394 22.1996667,28.9008788 L22.1996667,28.9008788 Z M12.4799242,33.9469697 L7.13260606,33.9469697 L4.38880303,20.7535 C4.40304545,19.9530758 4.58392424,19.1433939 4.91933333,18.3985152 C4.93428788,18.3757273 4.94639394,18.3522273 4.96134848,18.3294394 C5.00834848,18.2553788 5.04181818,18.1763333 5.06816667,18.0958636 C5.90134848,16.4971515 7.48795455,15.2744394 9.7624697,15.2744394 C13.0004848,15.2744394 14.8705152,17.2733636 14.9025606,20.7634697 L12.4799242,33.9469697 L12.4799242,33.9469697 Z" id="Shape" sketch:type="MSShapeGroup"></path>
            </g>
        </g>
    </g>
</svg>