<?xml version="1.0" encoding="UTF-8" standalone="no"?>
<svg width="45px" height="40px" viewBox="0 0 45 40" version="1.1" xmlns="http://www.w3.org/2000/svg" xmlns:xlink="http://www.w3.org/1999/xlink" xmlns:sketch="http://www.bohemiancoding.com/sketch/ns">
    <!-- Generator: Sketch 3.3.2 (12043) - http://www.bohemiancoding.com/sketch -->
    <title>Icon Change Cover Photo</title>
    <desc>Created with Sketch.</desc>
    <defs></defs>
    <g id="Welcome" stroke="none" stroke-width="1" fill="none" fill-rule="evenodd" sketch:type="MSPage">
        <g id="Admin-Menu-V2-Copy" sketch:type="MSArtboardGroup" transform="translate(-428.000000, -302.000000)" fill="#231F20">
            <g id="Group" sketch:type="MSLayerGroup" transform="translate(428.000000, 301.250000)">
                <path d="M42.9121387,0.9375 L2.93625618,0.9375 C1.830642,0.9375 0.9375,1.82638741 0.9375,2.92673486 L0.9375,38.7337176 C0.9375,39.8340651 1.830642,40.7229525 2.93625618,40.7229525 L42.9121387,40.7229525 C44.0177528,40.7229525 44.9108948,39.8340651 44.9108948,38.7337176 L44.9108948,2.92673486 C44.9108948,1.82638741 44.0177528,0.9375 42.9121387,0.9375 L42.9121387,0.9375 L42.9121387,0.9375 Z M42.9121387,2.92673486 L42.9121387,30.515474 L36.4158017,23.49349 C36.0341106,23.063773 35.49003,22.8190835 34.9163551,22.8190835 C34.3426802,22.8190835 33.7948055,23.063773 33.4169086,23.49349 L28.2120989,29.3615063 L12.4307275,11.5580808 C12.0513129,11.1283638 11.5049558,10.8836743 10.9312809,10.8836743 C10.357606,10.8836743 9.8120078,11.1283638 9.43183436,11.5580808 L2.93549735,19.0135579 L2.93549735,2.92673486 L42.9121387,2.92673486 L42.9121387,2.92673486 Z M2.93625618,22.0238427 L10.9312809,12.8729092 L27.0533667,31.0607388 L28.2128577,32.3695254 L33.7333403,38.7329624 L2.93625618,38.7329624 L2.93625618,22.0238427 L2.93625618,22.0238427 Z M36.3960721,38.7337176 L29.544603,30.8658935 L34.9171139,24.8083184 L42.9121387,33.5189618 L42.9121387,38.7329624 L36.3960721,38.7329624 L36.3960721,38.7337176 L36.3960721,38.7337176 Z" id="Shape" sketch:type="MSShapeGroup"></path>
            </g>
        </g>
    </g>
</svg>