<svg xmlns="http://www.w3.org/2000/svg" width="40" height="26" viewBox="0 0 40 26">
    <g fill="none" fill-rule="evenodd">
        <path d="M0-7h40v40H0z"/>
        <path fill="#720E9E" fill-rule="nonzero" d="M36.478 5.527l.035-.006 1.116-1.243-.054-.004.118-.185H22.059l.603 2.14h4.265l-7.18 6.642c-1.465-2.137-4.899-7.05-7.295-10.734h4.453V.621l.061-.436-.061-.008V0H0v2.137h5.287c2.053 1.695 10.953 12.5 11.277 13.532.13.967.316 6.67-.067 7.1-.462.663-5.277.305-6.125.368l-.032 2.095c1.55.046 6.198-.002 7.767-.002 3.091 0 8.504-.08 9.266-.019l.095-1.983-6.221-.093c-.13-.899-.274-6.573-.144-7.192.588-1.796 10.134-9.229 11.115-9.509l.925-.208h2.884l.45-.7zm-2.333 14.825l2.703.206L40 8.998c-.526-.018-5.308-.446-5.929-.561l.074 11.915zm-.468 1.853l.015 2.823 1.369.114 1.478.103.433-2.762-1.558-.072-1.737-.206z"/>
    </g>
</svg>
