<?xml version="1.0" encoding="UTF-8" standalone="no"?>
<svg width="40px" height="40px" viewBox="0 0 40 40" version="1.1" xmlns="http://www.w3.org/2000/svg" xmlns:xlink="http://www.w3.org/1999/xlink" xmlns:sketch="http://www.bohemiancoding.com/sketch/ns">
    <!-- Generator: Sketch 3.2.2 (9983) - http://www.bohemiancoding.com/sketch -->
    <title>icon-travel</title>
    <desc>Created with Sketch.</desc>
    <defs></defs>
    <g id="Welcome" stroke="none" stroke-width="1" fill="none" fill-rule="evenodd" sketch:type="MSPage">
        <g id="Menu-Wedding---Sub" sketch:type="MSArtboardGroup" transform="translate(-574.000000, -464.000000)" fill="#000000">
            <g id="Menu---Design-2-+-Imported-Layers-10" sketch:type="MSLayerGroup" transform="translate(540.000000, 437.000000)">
                <g id="icon-travel" transform="translate(34.000000, 27.000000)" sketch:type="MSShapeGroup">
                    <path d="M39.5150573,1.01883378 C39.4712487,0.945220326 39.4184075,0.8779295 39.3574368,0.817864535 L39.1776862,0.637218024 C39.1180704,0.578959524 39.0521317,0.527926885 38.9816767,0.485023338 C36.9664828,-0.724405055 33.2138503,0.406442106 30.6169509,3.00504217 L26.8159935,6.80494154 L9.56625874,5.65512649 C9.53825739,5.65377164 9.51070768,5.65241679 9.48270633,5.65241679 C8.05102441,5.67228791 6.96484302,6.45945508 6.71599231,7.66030277 C6.47120632,8.83992449 7.09039746,10.6233572 9.63897193,11.7758819 L17.8727237,15.8928159 C16.527304,17.4734729 13.9945367,20.5291086 12.7308629,22.5844143 L7.93450266,23.1177731 C7.36137826,23.181451 6.94858417,23.6976484 7.01226466,24.2716527 L7.3071821,26.9298661 C7.36002336,27.4027084 7.72539581,27.7807112 8.19780568,27.848002 L11.6577789,28.3420702 L12.1527705,31.8028058 C12.2200641,32.2738415 12.597179,32.6401023 13.0709438,32.6933931 L15.7292655,32.9882985 C16.0029561,33.0176536 16.2798082,32.9386207 16.4965928,32.7661033 C16.7133775,32.5926826 16.851126,32.341584 16.8827405,32.0651948 L17.4147661,27.2685783 C19.4710588,26.0054076 22.5259157,23.4740984 24.1070887,22.1282819 L28.2241904,30.3616982 C29.2259161,32.5755212 30.7036648,33.3333333 31.848107,33.3333333 C32.0201799,33.3333333 32.1854781,33.3161719 32.3390339,33.2845588 C33.5403822,33.0357182 34.3275814,31.9495811 34.3460984,30.5179575 C34.3460984,30.4899572 34.3460984,30.4624087 34.3447435,30.4344084 L33.1935267,13.1835698 L36.9935809,9.38367048 C39.5931901,6.78597365 40.7245349,3.03394561 39.5150573,1.01883378 L39.5150573,1.01883378 Z M31.3042852,12.0883274 C31.0931454,12.299471 30.9831021,12.5915828 31.0027847,12.8890628 L32.1703165,30.3983272 C32.1600279,30.714148 32.0669833,31.0550197 31.8321349,31.1033323 C31.4809807,31.174459 30.6842855,30.7705126 30.0522079,29.3658707 C30.04684,29.3528979 30.0405774,29.3403724 30.0338674,29.3273996 L25.353004,19.9646111 C25.2103056,19.6774199 24.9414602,19.4729864 24.626987,19.4117011 C24.5616768,19.3987282 24.4945773,19.3924655 24.4279251,19.3924655 C24.1787621,19.3924655 23.9363092,19.4823805 23.7466412,19.6501323 C23.6943035,19.6953135 18.5016943,24.2451903 15.9961977,25.6368594 C15.7040911,25.7992432 15.5072658,26.0940391 15.4705847,26.427306 L14.9999933,30.6658355 L14.1912203,30.5754732 L13.7197343,27.2727752 C13.6817112,27.0146611 13.5533274,26.7918867 13.369922,26.6344236 C13.2115671,26.4487783 12.9883493,26.3186029 12.7288978,26.2819211 L9.42536413,25.8099793 L9.33634542,25.0011919 L13.5747993,24.5292501 C13.9076129,24.4925683 14.2024036,24.2970815 14.3652318,24.0036277 C15.7568761,21.4976391 20.3057771,16.3058319 20.3518521,16.2539407 C20.562992,16.0128254 20.6506687,15.6871632 20.5889371,15.3717898 C20.5272056,15.057311 20.3241176,14.7893554 20.037379,14.6457599 L10.6743101,9.96526027 C10.6613375,9.9585502 10.6479176,9.95362948 10.6349451,9.94691941 C9.23122282,9.31661988 8.82370499,8.52080523 8.89706714,8.16830272 C8.94537881,7.93389751 9.28758643,7.83995649 9.60340156,7.82966771 L27.1123537,8.99677307 C27.4098283,9.01511394 27.700593,8.90775277 27.9130748,8.6961618 L32.0079357,4.5998859 C34.0719173,2.53586744 36.6382508,1.91764605 37.6460858,2.35469547 C38.0813381,3.36389045 37.4640224,5.92848036 35.4000407,7.99294615 L31.3042852,12.0883274 L31.3042852,12.0883274 Z" id="Fill-1"></path>
                    <path d="M9.68878308,18.482214 C10.103739,18.0673106 10.103739,17.3934376 9.68878308,16.9785342 C9.27382719,16.5627108 8.59986889,16.5627108 8.18445296,16.9785342 L0.31225201,24.8497393 C-0.104084003,25.2651027 -0.104084003,25.9385158 0.31225201,26.3543392 C0.519729957,26.5617909 0.792073514,26.6666667 1.06441707,26.6666667 C1.33676063,26.6666667 1.60910419,26.5617909 1.81658213,26.3543392 L9.68878308,18.482214" id="Fill-2"></path>
                    <path d="M21.5259724,31.4217114 L14.7550328,38.1933701 C14.340915,38.6065887 14.340915,39.2760668 14.7550328,39.6892853 C14.9614053,39.896581 15.2322978,40 15.5031903,40 C15.7740827,40 16.0449752,39.896581 16.2513477,39.6892853 L23.022745,32.9180842 C23.4368628,32.5053232 23.4368628,31.83493 23.022745,31.4217114 C22.6095424,31.0075777 21.939175,31.0075777 21.5259724,31.4217114" id="Fill-3"></path>
                    <path d="M8.23596706,29.1915567 L1.41450332,36.0139573 C1.00998037,36.4171418 1.00998037,37.0719814 1.41450332,37.4756129 C1.61609431,37.6772051 1.88071043,37.7777778 2.14532654,37.7777778 C2.40994266,37.7777778 2.67455878,37.6772051 2.87614977,37.4756129 L9.69761351,30.6541063 C10.1007955,30.2500278 10.1007955,29.5960822 9.69761351,29.1920037 C9.29398454,28.7879252 8.63914905,28.7879252 8.23596706,29.1915567" id="Fill-4"></path>
                </g>
            </g>
        </g>
    </g>
</svg>