<?xml version="1.0" encoding="UTF-8" standalone="no"?>
<svg width="38px" height="48px" viewBox="0 0 38 48" version="1.1" xmlns="http://www.w3.org/2000/svg" xmlns:xlink="http://www.w3.org/1999/xlink" xmlns:sketch="http://www.bohemiancoding.com/sketch/ns">
    <!-- Generator: Sketch 3.3.2 (12043) - http://www.bohemiancoding.com/sketch -->
    <title>noun_65304 copy</title>
    <desc>Created with Sketch.</desc>
    <defs></defs>
    <g id="Welcome" stroke="none" stroke-width="1" fill="none" fill-rule="evenodd" sketch:type="MSPage">
        <g id="Admin-Menu-V2-Copy" sketch:type="MSArtboardGroup" transform="translate(-308.000000, -509.000000)" fill="#000000">
            <g id="noun_65304-copy" sketch:type="MSLayerGroup" transform="translate(308.000000, 509.344388)">
                <path d="M33.6217288,8.98974576 L28.1314915,8.98974576 L28.1314915,4.2849661 C28.1314915,2.25440678 26.4825085,0.602237288 24.4551356,0.602237288 C24.0201864,0.602237288 23.5900169,0.680305085 23.1765763,0.833254237 L0.944779661,9.05427119 C0.936813559,9.05745763 0.931237288,9.06383051 0.923271186,9.06701695 C0.878661017,9.08454237 0.842813559,9.11481356 0.801389831,9.13871186 C0.729694915,9.17933898 0.65959322,9.21916949 0.600644068,9.27413559 C0.56479661,9.30759322 0.539305085,9.34742373 0.508237288,9.38566102 C0.458847458,9.447 0.412644068,9.50833898 0.378389831,9.57844068 C0.356084746,9.62384746 0.342542373,9.67084746 0.326610169,9.71944068 C0.301915254,9.79591525 0.285983051,9.87159322 0.279610169,9.95284746 C0.277220339,9.98072881 0.263677966,10.0038305 0.263677966,10.0325085 L0.263677966,45.6585085 C0.263677966,46.2352542 0.730491525,46.7020678 1.30723729,46.7020678 L33.6225254,46.7020678 C36.0235085,46.7020678 37.976,44.7495763 37.976,42.3493898 L37.976,13.3432203 C37.9744068,10.9422373 36.0219153,8.98974576 33.6217288,8.98974576 L33.6217288,8.98974576 L33.6217288,8.98974576 Z M23.8991017,2.79052542 C24.0807288,2.72361017 24.2679322,2.68935593 24.454339,2.68935593 C25.2190847,2.68935593 26.0443729,3.29955932 26.0443729,4.2849661 L26.0443729,8.98974576 L7.1360339,8.98974576 L23.8991017,2.79052542 L23.8991017,2.79052542 Z M35.8880847,42.3493898 C35.8880847,43.5984746 34.8716102,44.6157458 33.6209322,44.6157458 L2.34920339,44.6157458 L2.34920339,11.0760678 L27.0887288,11.0760678 L33.6217288,11.0760678 C34.8716102,11.0760678 35.8888814,12.0925424 35.8888814,13.3432203 L35.8888814,42.3493898 L35.8880847,42.3493898 L35.8880847,42.3493898 Z" id="Shape" sketch:type="MSShapeGroup"></path>
                <path d="M19.5,36.6556122 L18.821267,36.0277053 C15.2918552,32.7486355 12,29.3300308 12,26.2951471 C12,24.1672402 13.1199095,21.6556122 16.2081448,21.6556122 C17.5316742,21.6556122 18.7533937,22.562589 19.5,23.2951471 C20.2466063,22.562589 21.4343891,21.6556122 22.7918552,21.6556122 C25.8800905,21.6556122 27,24.1672402 27,26.2951471 C27,29.3300308 23.7420814,32.7486355 20.178733,36.0277053 L19.5,36.6556122 L19.5,36.6556122 Z M16.2081448,23.7486355 C14.7828054,23.7486355 14.0361991,24.6207285 14.0361991,26.2951471 C14.0361991,28.3532867 16.9886878,31.4579378 19.5,33.8300308 C22.0113122,31.4579378 24.9638009,28.3532867 24.9638009,26.2951471 C24.9638009,24.5858448 24.2171946,23.7486355 22.7918552,23.7486355 C21.841629,23.7486355 20.6538462,25.0393332 20.3144796,25.4928215 L19.5,26.5742169 L18.6855204,25.4928215 C18.3461538,25.0393332 17.158371,23.7486355 16.2081448,23.7486355 L16.2081448,23.7486355 L16.2081448,23.7486355 Z" id="Shape" sketch:type="MSShapeGroup"></path>
            </g>
        </g>
    </g>
</svg>