<?xml version="1.0" encoding="utf-8"?>
<!-- Generator: Adobe Illustrator 21.0.0, SVG Export Plug-In . SVG Version: 6.00 Build 0)  -->
<svg version="1.1" id="Layer_1" xmlns="http://www.w3.org/2000/svg" xmlns:xlink="http://www.w3.org/1999/xlink" x="0px" y="0px"
	 viewBox="0 0 37 46" style="enable-background:new 0 0 37 46;" xml:space="preserve">
<title>343F4640-09BD-4806-978C-5B6DB28ED5A2</title>
<desc>Created with sketchtool.</desc>
<g id="Welcome">
	<g id="icons-dashboards-update" transform="translate(-162.000000, -73.000000)">
		<g id="icon-lock" transform="translate(162.000000, 73.000000)">
			<g id="Group">
				<path id="Shape" d="M30.5,46H5.9c-3.2,0-5.8-2.6-5.8-5.8V23.8c0-3.2,2.6-5.8,5.8-5.8h24.6c3.2,0,5.8,2.6,5.8,5.8v16.4
					c0,1.5-0.6,3-1.7,4.1S32.1,46,30.5,46L30.5,46z M5.9,20C3.8,20,2,21.7,2,23.8v16.4c0,2.1,1.7,3.9,3.9,3.9h24.6
					c2.1,0,3.9-1.7,3.9-3.9l0-16.4c0-2.1-1.7-3.9-3.9-3.9H5.9L5.9,20z"/>
				<path id="Shape_1_" d="M28.4,19v-6.9c0-5.6-4.6-10.2-10.2-10.2C12.6,1.9,8,6.5,8,12.1V19c0,0.5-0.4,1-1,1s-1-0.4-1-1v-6.9
					C6.1,5.4,11.5,0,18.2,0s12.1,5.4,12.1,12.1V19c0,0.5-0.4,1-1,1C28.9,20,28.4,19.5,28.4,19z"/>
				<path d="M24,29.3c0-3.2-2.6-5.8-5.8-5.8c-3.2,0-5.8,2.6-5.8,5.8c0,1.9,0.9,3.6,2.4,4.6v4.8c0,1.1,0.9,2,2,2h2.8c1.1,0,2-0.9,2-2
					V34C23.1,32.9,24,31.2,24,29.3z M19.6,32.8v6h-2.8v-6c-1.4-0.6-2.4-1.9-2.4-3.5c0-2.1,1.7-3.8,3.8-3.8c2.1,0,3.8,1.7,3.8,3.8
					C22,30.9,21,32.3,19.6,32.8z"/>
			</g>
		</g>
	</g>
</g>
</svg>
