<?xml version="1.0" encoding="UTF-8" standalone="no"?>
<svg width="43px" height="43px" viewBox="0 0 43 43" version="1.1" xmlns="http://www.w3.org/2000/svg" xmlns:xlink="http://www.w3.org/1999/xlink" xmlns:sketch="http://www.bohemiancoding.com/sketch/ns">
    <!-- Generator: Sketch 3.3.2 (12043) - http://www.bohemiancoding.com/sketch -->
    <title>icon-schedule copy</title>
    <desc>Created with Sketch.</desc>
    <defs></defs>
    <g id="Welcome" stroke="none" stroke-width="1" fill="none" fill-rule="evenodd" sketch:type="MSPage">
        <g id="Admin-Menu-V2-Copy" sketch:type="MSArtboardGroup" transform="translate(-520.000000, -301.000000)" fill="#000000">
            <g id="icon-schedule-copy" sketch:type="MSLayerGroup" transform="translate(520.500000, 301.500000)">
                <path d="M21.0095094,12.6525 C22.5381509,12.6525 23.780717,11.3852308 23.780717,9.82719231 C23.780717,8.26996154 22.5381509,7.00269231 21.0095094,7.00269231 C19.4816604,7.00269231 18.2390943,8.26996154 18.2390943,9.82719231 C18.2390943,11.3852308 19.4816604,12.6525 21.0095094,12.6525 L21.0095094,12.6525 Z M21.0095094,8.61807692 C21.663283,8.61807692 22.1958113,9.16003846 22.1958113,9.82719231 C22.1958113,10.4943462 21.663283,11.0371154 21.0095094,11.0371154 C20.3557358,11.0371154 19.824,10.4943462 19.824,9.82719231 C19.824,9.16003846 20.3557358,8.61807692 21.0095094,8.61807692 L21.0095094,8.61807692 Z" id="Fill-1" sketch:type="MSShapeGroup"></path>
                <path d="M32.8970943,3.23076923 L31.3597358,3.23076923 L31.3597358,1.76319231 C31.3597358,0.8715 30.6496981,0.147807692 29.7748302,0.147807692 C28.8999623,0.147807692 28.1899245,0.8715 28.1899245,1.76319231 L28.1899245,3.23076923 L14.1730189,3.23076923 L14.1730189,1.76319231 C14.1730189,0.8715 13.4629811,0.147807692 12.5881132,0.147807692 C11.7132453,0.147807692 11.0032075,0.8715 11.0032075,1.76319231 L11.0032075,3.23076923 L9.12350943,3.23076923 C4.20792453,3.23076923 0.208415094,7.30719231 0.208415094,12.3173077 L0.208415094,32.5096154 C0.208415094,37.5197308 4.20792453,41.5961538 9.12350943,41.5961538 L32.8970943,41.5961538 C37.8126792,41.5961538 41.8121887,37.5197308 41.8121887,32.5096154 L41.8121887,12.3173077 C41.8121887,7.30719231 37.8126792,3.23076923 32.8970943,3.23076923 L32.8970943,3.23076923 Z M9.12350943,5.25 L11.0032075,5.25 L11.0032075,6.60934615 C11.0032075,7.50103846 11.7132453,8.22473077 12.5881132,8.22473077 C13.4629811,8.22473077 14.1730189,7.50103846 14.1730189,6.60934615 L14.1730189,5.25 L28.1899245,5.25 L28.1899245,6.60934615 C28.1899245,7.50103846 28.8999623,8.22473077 29.7748302,8.22473077 C30.6496981,8.22473077 31.3597358,7.50103846 31.3597358,6.60934615 L31.3597358,5.25 L32.8970943,5.25 C36.7206792,5.25 39.8310566,8.42019231 39.8310566,12.3173077 L39.8310566,14.1346154 L2.18954717,14.1346154 L2.18954717,12.3173077 C2.18954717,8.42019231 5.29992453,5.25 9.12350943,5.25 L9.12350943,5.25 Z M15.0962264,17.3653846 L26.8189811,17.3653846 L26.8189811,27.6368077 L15.0962264,27.6368077 L15.0962264,17.3653846 Z M15.0962264,29.2521923 L26.8189811,29.2521923 L26.8189811,39.5769231 L15.0962264,39.5769231 L15.0962264,29.2521923 Z M2.18954717,17.3653846 L13.5113208,17.3653846 L13.5113208,27.6368077 L2.18954717,27.6368077 L2.18954717,17.3653846 Z M28.4038868,17.3653846 L39.8310566,17.3653846 L39.8310566,27.6368077 L28.4038868,27.6368077 L28.4038868,17.3653846 Z M2.18954717,32.5096154 L2.18954717,29.2521923 L13.5113208,29.2521923 L13.5113208,39.5769231 L9.12350943,39.5769231 C5.29992453,39.5769231 2.18954717,36.4059231 2.18954717,32.5096154 L2.18954717,32.5096154 Z M32.8970943,39.5769231 L28.4038868,39.5769231 L28.4038868,29.2521923 L39.8310566,29.2521923 L39.8310566,32.5096154 C39.8310566,36.4059231 36.7206792,39.5769231 32.8970943,39.5769231 L32.8970943,39.5769231 Z" id="Fill-2" sketch:type="MSShapeGroup"></path>
            </g>
        </g>
    </g>
</svg>