<?xml version="1.0" encoding="UTF-8" standalone="no"?>
<svg width="24px" height="20px" viewBox="0 0 24 20" version="1.1" xmlns="http://www.w3.org/2000/svg" xmlns:xlink="http://www.w3.org/1999/xlink">
    <!-- Generator: Sketch 39.1 (31720) - http://www.bohemiancoding.com/sketch -->
    <title>iconBackArrowWht</title>
    <desc>Created with Sketch.</desc>
    <defs></defs>
    <g id="Page-1" stroke="none" stroke-width="1" fill="none" fill-rule="evenodd">
        <g id="iconBackArrow" fill="#fff">
            <path d="M3.06903478,9.09392209 L10.5356926,1.5534785 C10.8861422,1.19618047 10.8861422,0.622240186 10.5356926,0.264942151 C10.1828426,-0.0883140504 9.61396198,-0.0883140504 9.26031188,0.264942151 C9.26031188,0.264942151 2.41294183,7.1869853 0.26223715,9.35583287 C-0.0874123834,9.7131309 -0.0874123834,10.2878796 0.26223715,10.6443692 C2.31612812,12.7154044 8.94186676,19.41353 9.26031188,19.7320265 C9.61396198,20.0893245 10.1828426,20.0893245 10.5356926,19.7320265 C10.8861422,19.3787703 10.8861422,18.8040216 10.5356926,18.4467236 L3.07543569,10.9127469 L23.0998725,10.9127469 C23.3375061,10.9127469 23.5655385,10.818168 23.7375628,10.6476027 C23.9063867,10.4770373 24,10.2434194 24,10.0033345 C24,9.76324963 23.9063867,9.52963169 23.7375628,9.35906634 C23.5655385,9.18850099 23.3375061,9.09392209 23.0998725,9.09392209 L3.06903478,9.09392209 Z" id="Page-1"></path>
        </g>
    </g>
</svg>