<?xml version="1.0" encoding="UTF-8" standalone="no"?>
<svg width="47px" height="47px" viewBox="0 0 47 47" version="1.1" xmlns="http://www.w3.org/2000/svg" xmlns:xlink="http://www.w3.org/1999/xlink" xmlns:sketch="http://www.bohemiancoding.com/sketch/ns">
    <!-- Generator: Sketch 3.3.2 (12043) - http://www.bohemiancoding.com/sketch -->
    <title>icon-color</title>
    <desc>Created with Sketch.</desc>
    <defs></defs>
    <g id="Welcome" stroke="none" stroke-width="1" fill="none" fill-rule="evenodd" sketch:type="MSPage">
        <g id="Admin-Menu-V2-Copy" sketch:type="MSArtboardGroup" transform="translate(-71.000000, -293.000000)" stroke="#231F20" stroke-width="0.25" fill="#231F20">
            <g id="Menu---Design-2-+-Imported-Layers" sketch:type="MSLayerGroup" transform="translate(36.000000, 294.000000)">
                <path d="M80.5872889,20.4117333 L61.1778444,1.00177778 C60.6682667,0.492711111 60.0242667,0.169688889 59.3266,0.0577555556 L59.2524889,0 L59.2392,0.0454888889 C59.0904667,0.0255555556 58.9407111,0.0117555556 58.7884,0.0117555556 C57.8857778,0.0117555556 57.0373333,0.363911111 56.3994667,1.00228889 L36.9900222,20.4117333 C36.3521556,21.0496 36,21.8985556 36,22.8006667 C36,23.7038 36.3516444,24.5527556 36.9900222,25.1901111 L56.3999778,44.5995556 C57.0378444,45.2379333 57.8862889,45.5895778 58.7889111,45.5895778 C59.6915333,45.5895778 60.5399778,45.2379333 61.1783556,44.5995556 L72.2561778,33.5217333 C72.3328444,33.7134 72.4274,33.9004667 72.5418889,34.0773111 C73.1317111,34.9983333 74.134,35.5477778 75.2196,35.5477778 L75.2206222,35.5477778 C77.4674667,35.5477778 78.5454,33.4430222 78.7856222,31.6398222 C78.872,30.9927556 78.8791556,30.3998667 78.8858,29.8253778 C78.9011333,28.5092667 78.9154444,27.3337111 79.9611778,25.8162222 L80.5883111,25.1896 C80.8377333,24.9406889 81.0406444,24.6580444 81.1985778,24.3554667 L81.2726889,24.2788 L81.3079556,24.1239333 C81.4842889,23.7109556 81.5773111,23.2627111 81.5773111,22.8001556 C81.5768,21.8985556 81.2246444,21.0496 80.5872889,20.4117333 L80.5872889,20.4117333 Z M72.4601111,30.3385333 C72.3205778,30.6446889 72.2142667,30.9482889 72.1406667,31.2472889 L59.9833778,43.4050889 C59.6639333,43.7235111 59.2397111,43.8998444 58.7884,43.8998444 C58.3365778,43.8998444 57.9133778,43.7235111 57.5939333,43.4050889 L38.1839778,23.9956444 C37.8650444,23.6772222 37.6892222,23.2519778 37.6892222,22.8006667 C37.6892222,22.3488444 37.8650444,21.9251333 38.1839778,21.6062 L57.5944444,2.19624444 C57.9133778,1.87731111 58.3370889,1.70097778 58.7884,1.70097778 C58.7909556,1.70097778 58.793,1.702 58.7955556,1.702 C58.6054222,2.95473333 58.4822444,6.42313333 61.5693556,11.1314889 C61.1395111,11.5112444 60.2379111,12.3423111 59.3174,13.3987778 C57.5734889,15.4008 56.6550222,17.1789556 56.5875556,18.6841778 C56.5415556,19.7104889 56.8804222,20.5931778 57.5944444,21.3077111 C58.1771111,21.8903778 58.8395111,22.1858 59.5632444,22.1858 C60.6917778,22.1858 61.7104222,21.4707556 62.6958444,20.7797333 C62.9186889,20.6243556 63.1476667,20.4638667 63.3715333,20.3161556 C63.7119333,20.1868444 64.0666444,20.1193778 64.4044889,20.1193778 C65.0469556,20.1193778 65.5376222,20.3606222 65.7144667,20.7654222 C65.854,21.0838444 66.1259111,22.3258444 63.7415778,24.9166667 C59.9332889,29.0566667 60.0830444,30.9181333 61.5601556,32.5812889 C61.6490889,32.6824889 61.7339333,32.7770444 61.7911778,32.8557556 L61.8560889,32.9452 L61.9414444,33.0142 C62.0446889,33.0980222 62.6120222,33.5120222 63.6644,33.5120222 C65.5703333,33.5120222 67.8079778,32.2086889 70.3231556,29.6321778 C72.0318,27.8468667 72.8086889,27.6332222 73.0095556,27.6086889 C73.1240444,27.8806 73.1209778,28.8992444 72.4601111,30.3385333 L72.4601111,30.3385333 Z M77.1960667,29.8044222 C77.1889111,30.3523333 77.1838,30.8706 77.1107111,31.4174889 C76.9098444,32.9232222 76.1845778,33.8585556 75.2190889,33.8585556 C74.7187111,33.8585556 74.2367333,33.5927778 73.9622667,33.1654889 C73.6096,32.6145111 73.6208444,31.8601111 73.9954889,31.0428444 C74.6466444,29.6260444 75.0959111,27.7277778 74.4079556,26.6544444 C74.1028222,26.1780889 73.6167556,25.9158889 73.0397111,25.9158889 C72.0323111,25.9158889 70.7448222,26.749 69.1082444,28.4576444 C66.2521556,31.3858 64.4709333,31.8233111 63.6644,31.8233111 C63.3408667,31.8233111 63.1374444,31.7553333 63.0398222,31.7118889 C62.9677556,31.6244889 62.8946667,31.5416889 62.8226,31.4604222 C62.4326222,31.0218889 62.2154,30.7464 62.2936,30.1898 C62.3840667,29.5412 62.9248222,28.3002222 64.9846,26.0610444 C67.7256889,23.0817778 67.7359111,21.1676667 67.2616,20.0866667 C66.8056889,19.0496222 65.7379778,18.4306667 64.4039778,18.4306667 C63.8269333,18.4306667 63.2248444,18.5512889 62.6631333,18.7802667 L62.5885111,18.8109333 L62.5215556,18.8543778 C62.2501556,19.0302 61.9833556,19.2177778 61.7257556,19.3976889 C60.9544889,19.9384444 60.1576667,20.4970889 59.5627333,20.4970889 C59.3950889,20.4970889 59.1318667,20.4572222 58.7884,20.1142667 C58.4137556,19.7401333 58.2502,19.3097778 58.2747333,18.7613556 C58.3626444,16.7726222 60.8696444,14.0642444 62.3421556,12.7067333 C63.3740889,13.7049333 65.7798889,16.0059556 69.2242667,19.1400889 C72.2837778,21.9246222 75.9663333,23.0015333 78.1666667,23.6455333 C78.5234222,23.7498 78.9266889,23.8678667 79.2517556,23.9757111 C77.2374667,26.3324444 77.216,28.0952667 77.1960667,29.8044222 L77.1960667,29.8044222 Z M79.1669111,21.7712889 C77.2972667,21.7712889 74.0793111,20.6928444 70.3185556,17.8510667 C68.2056222,15.9282667 66.4918667,14.3259333 65.2493556,13.1493556 C61.2908,8.65873333 60.5001111,5.07635556 60.4193556,3.174 C64.7954889,7.15248889 76.7738889,19.0450222 79.3488667,21.7672 C79.2926444,21.7697556 79.2318222,21.7712889 79.1669111,21.7712889 L79.1669111,21.7712889 Z" id="icon-color" sketch:type="MSShapeGroup"></path>
            </g>
        </g>
    </g>
</svg>