<?xml version="1.0" encoding="UTF-8" standalone="no"?>
<svg width="56px" height="40px" viewBox="0 0 56 40" version="1.1" xmlns="http://www.w3.org/2000/svg" xmlns:xlink="http://www.w3.org/1999/xlink">
    <!-- Generator: sketchtool 39.1 (31720) - http://www.bohemiancoding.com/sketch -->
    <title>326F40AC-2C54-4BF2-95FB-15D6F79480DD</title>
    <desc>Created with sketchtool.</desc>
    <defs>
        <rect id="path-1" x="8" y="5" width="8" height="8" rx="4"></rect>
        <mask id="mask-2" maskContentUnits="userSpaceOnUse" maskUnits="objectBoundingBox" x="0" y="0" width="8" height="8" fill="white">
            <use xlink:href="#path-1"></use>
        </mask>
    </defs>
    <g id="Welcome" stroke="none" stroke-width="1" fill="none" fill-rule="evenodd">
        <g id="icons-dashboards-update" transform="translate(-77.000000, -77.000000)">
            <g id="icon-guests" transform="translate(77.000000, 77.000000)">
                <g id="Page-1" fill="#000000">
                    <path d="M4.75152593,0 C2.14041481,0 0,2.43821814 0,5.41262219 L0,31.5873778 C0,34.5617819 2.14041481,37 4.75152593,37 L42.2484741,37 C44.8595852,37 47,34.5617819 47,31.5873778 L47,5.41262219 C47,2.43821814 44.8595852,0 42.2484741,0 L4.75152593,0 Z M45,31.7 C45,33.5 43.7529709,35 42.1438118,35 L4.85618821,35 C3.29826737,35 2,33.5592 2,31.7 L2,5.3 C2,3.5 3.24702908,2 4.85618821,2 L42.1438118,2 C43.7017326,2 45,3.4408 45,5.3 L45,31.7 Z" id="Fill-1"></path>
                    <path d="M29.5694414,15.7553816 C29.5694414,15.7553816 33.1333828,13.0576389 34.8898771,11.7094336 C37.8320568,9.46131474 40.8795847,7.11461165 41.3959982,6.76290594 C41.4985923,6.71361385 41.5522993,6.66432176 41.6032521,6.61236524 C41.9633645,6.26332396 42.01776,5.71178545 41.6542049,5.3141182 C41.0868387,4.66332941 40.4141241,5.16291139 39.8467578,5.56390919 C39.4866455,5.81370018 38.970232,6.21403187 38.3484702,6.66165733 C37.1090779,7.6115292 35.4572434,8.86048414 33.6497963,10.2080233 C30.7076166,12.4561422 27.4018819,14.9540521 25.2852753,16.5520483 C24.354354,17.2514631 23.0123675,17.2514631 22.0304934,16.5520483 L6.53808953,5.21220348 C6.12427021,4.9131204 5.5562154,5.01170457 5.24705587,5.41270238 C4.93789635,5.81370018 5.03980194,6.36257425 5.45430981,6.66165733 L17.5900262,15.6048409 L19.1365123,16.7518811 L20.9949123,18.1000863 C21.8211738,18.6982525 22.7514066,19 23.7332807,19 C24.7151548,19 25.6963404,18.7009169 26.522602,18.1000863 C26.9873741,17.7510451 28.0718423,16.9497156 28.0718423,16.9497156" id="Fill-2"></path>
                </g>
                <g id="Group-9" transform="translate(32.000000, 16.000000)">
                    <rect id="Rectangle" fill="#FFFFFF" x="0" y="0" width="24" height="24" rx="12"></rect>
                    <path d="M12,22.3 C17.6894549,22.3 22.3,17.6890682 22.3,12 C22.3,6.31054508 17.6890682,1.7 12,1.7 C6.31054508,1.7 1.7,6.31093184 1.7,12 C1.7,17.6894549 6.31093184,22.3 12,22.3 Z M12,0 C18.627417,0 24,5.37112582 24,12 C24,18.627417 18.6288742,24 12,24 C5.372583,24 0,18.6288742 0,12 C0,5.372583 5.37112582,0 12,0 Z" id="Rectangle-3" fill="#000000"></path>
                    <use id="Rectangle-5" stroke="#000000" mask="url(#mask-2)" stroke-width="3.2" xlink:href="#path-1"></use>
                    <path d="M18.4142136,21.2071068 C18.4142136,17.7790164 15.6351972,15 12.2071068,15 C8.77901637,15 6,17.7790164 6,21.2071068" id="Oval-3" stroke="#000000" stroke-width="1.6"></path>
                </g>
            </g>
        </g>
    </g>
</svg>