<svg xmlns="http://www.w3.org/2000/svg" xmlns:xlink="http://www.w3.org/1999/xlink" width="40" height="40" viewBox="0 0 40 40">
    <defs>
        <path id="a" d="M0 39.994V.044h39.954v39.95z"/>
    </defs>
    <g fill="none" fill-rule="evenodd">
        <g>
            <mask id="b" fill="#fff">
                <use xlink:href="#a"/>
            </mask>
            <path fill="#276BA6" d="M0 4.08v31.338L23.449 40V.045L0 4.08M24.904 19.071v10.51h13.261s1.94-.269 1.779-2.807l.01-13.732-9.713 6.554s-2.75 2.214-5.337-.525" mask="url(#b)"/>
        </g>
        <path fill="#276BA6" d="M24.815 8.15H38.07s1.56-.108 1.56 1.6l-11.982 8.028-2.833-1.816V8.149"/>
        <path fill="#FFFFFE" d="M11.604 23.788c-1.426 0-2.582-1.867-2.582-4.17s1.156-4.17 2.582-4.17 2.582 1.867 2.582 4.17-1.156 4.17-2.582 4.17zm.063-11.195c-2.966 0-5.37 3.15-5.37 7.037 0 3.886 2.404 7.037 5.37 7.037s5.37-3.15 5.37-7.037-2.404-7.037-5.37-7.037z"/>
    </g>
</svg>
