<?xml version="1.0" encoding="UTF-8" standalone="no"?>
<svg width="43px" height="43px" viewBox="0 0 43 43" version="1.1" xmlns="http://www.w3.org/2000/svg" xmlns:xlink="http://www.w3.org/1999/xlink">
    <!-- Generator: sketchtool 39.1 (31720) - http://www.bohemiancoding.com/sketch -->
    <title>E0B755B0-6679-4F4E-A136-020FC9C8FDBC</title>
    <desc>Created with sketchtool.</desc>
    <defs></defs>
    <g id="Welcome" stroke="none" stroke-width="1" fill="none" fill-rule="evenodd">
        <g id="icons-dashboards-update" transform="translate(-232.000000, -75.000000)" fill="#000000">
            <g id="icon-rsvp" transform="translate(232.000000, 75.000000)">
                <path d="M37.9,8.63157895 L5.1,8.63157895 C2.29565839,8.63157895 0,10.8970313 0,13.6776316 L0,37.9539474 C0,40.7345476 2.29565839,43 5.1,43 L37.9,43 C40.7043416,43 43,40.7345476 43,37.9539474 L43,13.6776316 C43,10.8970313 40.7043416,8.63157895 37.9,8.63157895 L37.9,8.63157895 Z M37.9,10.6315789 C39.6056584,10.6315789 41,12.007574 41,13.6776316 L41,37.9539474 C41,39.624005 39.6056584,41 37.9,41 L5.1,41 C3.39434161,41 2,39.624005 2,37.9539474 L2,13.6776316 C2,12.007574 3.39434161,10.6315789 5.1,10.6315789 L37.9,10.6315789 L37.9,10.6315789 Z" id="Shape"></path>
                <path d="M7.19920925,7.47368421 C7.60131104,6.55741484 8.56593864,5.90541685 9.69932399,5.90541685 L34.3796234,5.90541685 C35.5130087,5.90541685 36.4776363,6.55741484 36.8797381,7.47368421 L38.7631579,7.47368421 C38.3006367,5.62378458 36.5172215,4.23684211 34.3796234,4.23684211 L9.69932399,4.23684211 C7.56380931,4.23684211 5.7783107,5.62378458 5.31578947,7.47368421 L7.19920925,7.47368421 L7.19920925,7.47368421 Z" id="Shape"></path>
                <path d="M12.1170473,2.5 C12.3739353,2.40212766 12.644872,2.34042553 12.9318641,2.34042553 L30.8839253,2.34042553 C31.1709175,2.34042553 31.4418541,2.40212766 31.6987422,2.5 L34.3157895,2.5 C33.5611808,1.29787234 32.3108583,0.5 30.8839253,0.5 L12.9318641,0.5 C11.5049312,0.5 10.2546087,1.29787234 9.5,2.5 L12.1170473,2.5 L12.1170473,2.5 Z" id="Shape"></path>
                <g id="Group-7" transform="translate(7.000000, 15.000000)">
                    <g id="Group-8">
                        <path d="M8.91836735,11.8367347 C8.36734694,11.8367347 8,11.4693878 8,10.9183673 C8,10.3673469 8.36734694,10 8.91836735,10 L27.9387755,10 C28.4897959,10 28.8571429,10.3673469 28.8571429,10.9183673 C28.8571429,11.4693878 28.4897959,11.8367347 27.9387755,11.8367347 L8.91836735,11.8367347 Z" id="Shape"></path>
                        <path d="M8.91836735,3.83673469 C8.36734694,3.83673469 8,3.46938776 8,2.91836735 C8,2.36734694 8.36734694,2 8.91836735,2 L16.8569336,2 L21.9387755,2 C22.4897959,2 22.8571429,2.36734694 22.8571429,2.91836735 C22.8571429,3.46938776 22.4897959,3.83673469 21.9387755,3.83673469 L8.91836735,3.83673469 Z" id="Shape-Copy"></path>
                        <path d="M3,12.5 C3.82648057,12.5 4.5,11.827003 4.5,11 C4.5,10.1735194 3.82700299,9.5 3,9.5 C2.17351943,9.5 1.5,10.172997 1.5,11 C1.5,11.8264806 2.17299701,12.5 3,12.5 Z M3,8 C4.65685425,8 6,9.34651712 6,11 C6,12.6568542 4.65348288,14 3,14 C1.34314575,14 0,12.6534829 0,11 C0,9.34314575 1.34651712,8 3,8 Z" id="Rectangle-2"></path>
                        <path d="M3,4.5 C3.82648057,4.5 4.5,3.82700299 4.5,3 C4.5,2.17351943 3.82700299,1.5 3,1.5 C2.17351943,1.5 1.5,2.17299701 1.5,3 C1.5,3.82648057 2.17299701,4.5 3,4.5 Z M3,0 C4.65685425,0 6,1.34651712 6,3 C6,4.65685425 4.65348288,6 3,6 C1.34314575,6 0,4.65348288 0,3 C0,1.34314575 1.34651712,0 3,0 Z" id="Rectangle-2-Copy"></path>
                    </g>
                    <g id="Group-8-Copy" transform="translate(0.000000, 16.000000)">
                        <path d="M8.91836735,3.83673469 C8.36734694,3.83673469 8,3.46938776 8,2.91836735 C8,2.36734694 8.36734694,2 8.91836735,2 L23.9387755,2 C24.4897959,2 24.8571429,2.36734694 24.8571429,2.91836735 C24.8571429,3.46938776 24.4897959,3.83673469 23.9387755,3.83673469 L8.91836735,3.83673469 Z" id="Shape"></path>
                        <path d="M3,4.5 C3.82648057,4.5 4.5,3.82700299 4.5,3 C4.5,2.17351943 3.82700299,1.5 3,1.5 C2.17351943,1.5 1.5,2.17299701 1.5,3 C1.5,3.82648057 2.17299701,4.5 3,4.5 Z M3,0 C4.65685425,0 6,1.34651712 6,3 C6,4.65685425 4.65348288,6 3,6 C1.34314575,6 0,4.65348288 0,3 C0,1.34314575 1.34651712,0 3,0 Z" id="Rectangle-2"></path>
                    </g>
                </g>
            </g>
        </g>
    </g>
</svg>