<?xml version="1.0" encoding="UTF-8" standalone="no"?>
<svg width="43px" height="38px" viewBox="0 0 43 38" version="1.1" xmlns="http://www.w3.org/2000/svg" xmlns:xlink="http://www.w3.org/1999/xlink" xmlns:sketch="http://www.bohemiancoding.com/sketch/ns">
    <!-- Generator: Sketch 3.2.2 (9983) - http://www.bohemiancoding.com/sketch -->
    <title>icon-players</title>
    <desc>Created with Sketch.</desc>
    <defs></defs>
    <g id="Welcome" stroke="none" stroke-width="1" fill="none" fill-rule="evenodd" sketch:type="MSPage">
        <g id="Menu-Wedding---Sub" sketch:type="MSArtboardGroup" transform="translate(-101.000000, -463.000000)" fill="#000000">
            <g id="Menu---Design-2-+-Party" sketch:type="MSLayerGroup" transform="translate(66.000000, 437.000000)">
                <g id="icon-players" transform="translate(56.500000, 45.000000) rotate(-1.000000) translate(-56.500000, -45.000000) translate(35.000000, 26.000000)" sketch:type="MSShapeGroup">
                    <path d="M42.5281781,22.5303226 C42.5281781,18.259 40.2444658,14.5343871 36.8828082,12.6012903 C36.4834384,13.1112258 36.0157397,13.559871 35.4962055,13.9361935 C38.6010411,15.4543548 40.7610548,18.7309355 40.7610548,22.5297097 C40.7610548,23.7683871 39.0504795,24.8256452 36.4545753,25.4177097 C35.1834247,21.3204516 32.422589,17.9133226 28.8312055,15.903 C28.408863,16.3939355 27.9441096,16.8425806 27.4410685,17.2440323 C32.1769589,19.6233226 35.460274,24.655871 35.460274,30.4845806 C35.460274,32.3245161 33.0587534,33.6643226 31.3852877,34.0547419 L28.408863,27.9459355 L29.0886164,35.1604194 C26.7395205,35.7377742 24.0010685,36.0393226 21.3226986,36.0393226 C18.9600548,36.0393226 15.9636027,35.8027419 13.8147808,35.3516452 L14.5316438,27.9459355 L11.5045616,34.3189032 C9.05473973,33.5883226 7.2139863,31.9794516 7.18571233,30.4851935 C7.07556164,24.6577097 10.4690274,19.6239355 15.2049178,17.2446452 C14.7018767,16.8431935 14.2371233,16.3945484 13.8147808,15.9036129 C10.2233973,17.9139355 7.46256164,21.3210645 6.19141096,25.4183226 C3.59491781,24.8262581 1.88493151,23.769 1.88493151,22.5303226 C1.88493151,18.7315484 4.04494521,15.4549677 7.14978082,13.9368065 C6.63024658,13.559871 6.16254795,13.1112258 5.76317808,12.6019032 C2.40152055,14.535 0.117808219,18.259 0.117808219,22.5309355 C0.117808219,24.9304516 2.53346575,26.4443226 5.73961644,27.1945161 C5.53227397,28.259129 5.41917808,29.3580645 5.41917808,30.4851935 C5.41917808,35.5925161 13.4071644,37.8786452 21.3232877,37.8786452 C29.239411,37.8786452 37.2273973,35.593129 37.2273973,30.4851935 C37.2273973,29.3580645 37.1143014,28.2585161 36.9069589,27.1945161 C40.1125205,26.4430968 42.5281781,24.9298387 42.5281781,22.5303226" id="Fill-1"></path>
                    <path d="M11.0150685,13.6689677 C11.4191507,13.6689677 11.8132192,13.6217742 12.1931507,13.5365806 C11.9298493,12.9745484 11.7124932,12.3867742 11.5475616,11.7744839 C11.3720274,11.8002258 11.1970822,11.830871 11.0150685,11.830871 C8.90394521,11.830871 7.18630137,10.0430323 7.18630137,7.8463871 C7.18630137,5.64974194 8.90394521,3.86251613 11.0150685,3.86251613 C11.4621507,3.86251613 11.8850822,3.95751613 12.283863,4.10522581 C12.5613014,3.54258065 12.8864521,3.01180645 13.2528356,2.51351613 C12.5666027,2.20093548 11.810863,2.02441935 11.0150685,2.02441935 C7.92967123,2.02441935 5.41917808,4.636 5.41917808,7.847 C5.41917808,11.058 7.92908219,13.6689677 11.0150685,13.6689677" id="Fill-2"></path>
                    <path d="M31.6309178,3.86190323 C33.7420411,3.86190323 35.4596849,5.64851613 35.4596849,7.84577419 C35.4596849,10.0430323 33.7420411,11.8302581 31.6309178,11.8302581 C31.4483151,11.8302581 31.2739589,11.8002258 31.0984247,11.773871 C30.9334932,12.3861613 30.716137,12.9739355 30.4528356,13.5359677 C30.8333562,13.6211613 31.2268356,13.6683548 31.6309178,13.6683548 C34.7163151,13.6683548 37.2268082,11.0555484 37.2268082,7.84516129 C37.2268082,4.63477419 34.7163151,2.02258065 31.6309178,2.02258065 C30.8351233,2.02258065 30.0787945,2.19909677 29.3931507,2.51167742 C29.7589452,3.00996774 30.0846849,3.54074194 30.3621233,4.1033871 C30.7609041,3.95690323 31.1838356,3.86190323 31.6309178,3.86190323" id="Fill-3"></path>
                    <path d="M21.3226986,16.732871 C25.7075205,16.732871 29.2747534,13.021129 29.2747534,8.45867742 C29.2747534,3.89622581 25.7075205,0.184483871 21.3226986,0.184483871 C16.9378767,0.184483871 13.3706438,3.89622581 13.3706438,8.45867742 C13.3706438,13.021129 16.9384658,16.732871 21.3226986,16.732871 L21.3226986,16.732871 Z M21.3226986,2.02319355 C24.7332466,2.02319355 27.5076301,4.91058065 27.5076301,8.45867742 C27.5076301,12.0067742 24.7332466,14.8941613 21.3226986,14.8941613 C17.9121507,14.8941613 15.1377671,12.0067742 15.1377671,8.45867742 C15.1377671,4.91058065 17.9127397,2.02319355 21.3226986,2.02319355 L21.3226986,2.02319355 Z" id="Fill-4"></path>
                </g>
            </g>
        </g>
    </g>
</svg>